%TF.GenerationSoftware,KiCad,Pcbnew,9.0.2*%
%TF.CreationDate,2025-06-03T22:34:10+03:00*%
%TF.ProjectId,first_PcB,66697273-745f-4506-9342-2e6b69636164,rev?*%
%TF.SameCoordinates,Original*%
%TF.FileFunction,Paste,Top*%
%TF.FilePolarity,Positive*%
%FSLAX46Y46*%
G04 Gerber Fmt 4.6, Leading zero omitted, Abs format (unit mm)*
G04 Created by KiCad (PCBNEW 9.0.2) date 2025-06-03 22:34:10*
%MOMM*%
%LPD*%
G01*
G04 APERTURE LIST*
%ADD10R,1.270000X5.080000*%
%ADD11C,0.150000*%
%ADD12C,0.120000*%
G04 APERTURE END LIST*
D10*
%TO.C,BT1*%
X138585000Y-82748075D03*
X160555000Y-82748075D03*
%TD*%
D11*
X134336779Y-116869819D02*
X134336779Y-115869819D01*
X134336779Y-115869819D02*
X134670112Y-116584104D01*
X134670112Y-116584104D02*
X135003445Y-115869819D01*
X135003445Y-115869819D02*
X135003445Y-116869819D01*
X135670112Y-115869819D02*
X135860588Y-115869819D01*
X135860588Y-115869819D02*
X135955826Y-115917438D01*
X135955826Y-115917438D02*
X136051064Y-116012676D01*
X136051064Y-116012676D02*
X136098683Y-116203152D01*
X136098683Y-116203152D02*
X136098683Y-116536485D01*
X136098683Y-116536485D02*
X136051064Y-116726961D01*
X136051064Y-116726961D02*
X135955826Y-116822200D01*
X135955826Y-116822200D02*
X135860588Y-116869819D01*
X135860588Y-116869819D02*
X135670112Y-116869819D01*
X135670112Y-116869819D02*
X135574874Y-116822200D01*
X135574874Y-116822200D02*
X135479636Y-116726961D01*
X135479636Y-116726961D02*
X135432017Y-116536485D01*
X135432017Y-116536485D02*
X135432017Y-116203152D01*
X135432017Y-116203152D02*
X135479636Y-116012676D01*
X135479636Y-116012676D02*
X135574874Y-115917438D01*
X135574874Y-115917438D02*
X135670112Y-115869819D01*
X136527255Y-116869819D02*
X136527255Y-115869819D01*
X136955826Y-116869819D02*
X136955826Y-116346009D01*
X136955826Y-116346009D02*
X136908207Y-116250771D01*
X136908207Y-116250771D02*
X136812969Y-116203152D01*
X136812969Y-116203152D02*
X136670112Y-116203152D01*
X136670112Y-116203152D02*
X136574874Y-116250771D01*
X136574874Y-116250771D02*
X136527255Y-116298390D01*
X137860588Y-116869819D02*
X137860588Y-116346009D01*
X137860588Y-116346009D02*
X137812969Y-116250771D01*
X137812969Y-116250771D02*
X137717731Y-116203152D01*
X137717731Y-116203152D02*
X137527255Y-116203152D01*
X137527255Y-116203152D02*
X137432017Y-116250771D01*
X137860588Y-116822200D02*
X137765350Y-116869819D01*
X137765350Y-116869819D02*
X137527255Y-116869819D01*
X137527255Y-116869819D02*
X137432017Y-116822200D01*
X137432017Y-116822200D02*
X137384398Y-116726961D01*
X137384398Y-116726961D02*
X137384398Y-116631723D01*
X137384398Y-116631723D02*
X137432017Y-116536485D01*
X137432017Y-116536485D02*
X137527255Y-116488866D01*
X137527255Y-116488866D02*
X137765350Y-116488866D01*
X137765350Y-116488866D02*
X137860588Y-116441247D01*
X138336779Y-116869819D02*
X138336779Y-116203152D01*
X138336779Y-116298390D02*
X138384398Y-116250771D01*
X138384398Y-116250771D02*
X138479636Y-116203152D01*
X138479636Y-116203152D02*
X138622493Y-116203152D01*
X138622493Y-116203152D02*
X138717731Y-116250771D01*
X138717731Y-116250771D02*
X138765350Y-116346009D01*
X138765350Y-116346009D02*
X138765350Y-116869819D01*
X138765350Y-116346009D02*
X138812969Y-116250771D01*
X138812969Y-116250771D02*
X138908207Y-116203152D01*
X138908207Y-116203152D02*
X139051064Y-116203152D01*
X139051064Y-116203152D02*
X139146303Y-116250771D01*
X139146303Y-116250771D02*
X139193922Y-116346009D01*
X139193922Y-116346009D02*
X139193922Y-116869819D01*
X140051064Y-116822200D02*
X139955826Y-116869819D01*
X139955826Y-116869819D02*
X139765350Y-116869819D01*
X139765350Y-116869819D02*
X139670112Y-116822200D01*
X139670112Y-116822200D02*
X139622493Y-116726961D01*
X139622493Y-116726961D02*
X139622493Y-116346009D01*
X139622493Y-116346009D02*
X139670112Y-116250771D01*
X139670112Y-116250771D02*
X139765350Y-116203152D01*
X139765350Y-116203152D02*
X139955826Y-116203152D01*
X139955826Y-116203152D02*
X140051064Y-116250771D01*
X140051064Y-116250771D02*
X140098683Y-116346009D01*
X140098683Y-116346009D02*
X140098683Y-116441247D01*
X140098683Y-116441247D02*
X139622493Y-116536485D01*
X140955826Y-116869819D02*
X140955826Y-115869819D01*
X140955826Y-116822200D02*
X140860588Y-116869819D01*
X140860588Y-116869819D02*
X140670112Y-116869819D01*
X140670112Y-116869819D02*
X140574874Y-116822200D01*
X140574874Y-116822200D02*
X140527255Y-116774580D01*
X140527255Y-116774580D02*
X140479636Y-116679342D01*
X140479636Y-116679342D02*
X140479636Y-116393628D01*
X140479636Y-116393628D02*
X140527255Y-116298390D01*
X140527255Y-116298390D02*
X140574874Y-116250771D01*
X140574874Y-116250771D02*
X140670112Y-116203152D01*
X140670112Y-116203152D02*
X140860588Y-116203152D01*
X140860588Y-116203152D02*
X140955826Y-116250771D01*
X151886667Y-111297200D02*
X152029524Y-111344819D01*
X152029524Y-111344819D02*
X152267619Y-111344819D01*
X152267619Y-111344819D02*
X152362857Y-111297200D01*
X152362857Y-111297200D02*
X152410476Y-111249580D01*
X152410476Y-111249580D02*
X152458095Y-111154342D01*
X152458095Y-111154342D02*
X152458095Y-111059104D01*
X152458095Y-111059104D02*
X152410476Y-110963866D01*
X152410476Y-110963866D02*
X152362857Y-110916247D01*
X152362857Y-110916247D02*
X152267619Y-110868628D01*
X152267619Y-110868628D02*
X152077143Y-110821009D01*
X152077143Y-110821009D02*
X151981905Y-110773390D01*
X151981905Y-110773390D02*
X151934286Y-110725771D01*
X151934286Y-110725771D02*
X151886667Y-110630533D01*
X151886667Y-110630533D02*
X151886667Y-110535295D01*
X151886667Y-110535295D02*
X151934286Y-110440057D01*
X151934286Y-110440057D02*
X151981905Y-110392438D01*
X151981905Y-110392438D02*
X152077143Y-110344819D01*
X152077143Y-110344819D02*
X152315238Y-110344819D01*
X152315238Y-110344819D02*
X152458095Y-110392438D01*
X152791429Y-110344819D02*
X153029524Y-111344819D01*
X153029524Y-111344819D02*
X153220000Y-110630533D01*
X153220000Y-110630533D02*
X153410476Y-111344819D01*
X153410476Y-111344819D02*
X153648572Y-110344819D01*
X153934286Y-110344819D02*
X154553333Y-110344819D01*
X154553333Y-110344819D02*
X154220000Y-110725771D01*
X154220000Y-110725771D02*
X154362857Y-110725771D01*
X154362857Y-110725771D02*
X154458095Y-110773390D01*
X154458095Y-110773390D02*
X154505714Y-110821009D01*
X154505714Y-110821009D02*
X154553333Y-110916247D01*
X154553333Y-110916247D02*
X154553333Y-111154342D01*
X154553333Y-111154342D02*
X154505714Y-111249580D01*
X154505714Y-111249580D02*
X154458095Y-111297200D01*
X154458095Y-111297200D02*
X154362857Y-111344819D01*
X154362857Y-111344819D02*
X154077143Y-111344819D01*
X154077143Y-111344819D02*
X153981905Y-111297200D01*
X153981905Y-111297200D02*
X153934286Y-111249580D01*
X151886667Y-94197200D02*
X152029524Y-94244819D01*
X152029524Y-94244819D02*
X152267619Y-94244819D01*
X152267619Y-94244819D02*
X152362857Y-94197200D01*
X152362857Y-94197200D02*
X152410476Y-94149580D01*
X152410476Y-94149580D02*
X152458095Y-94054342D01*
X152458095Y-94054342D02*
X152458095Y-93959104D01*
X152458095Y-93959104D02*
X152410476Y-93863866D01*
X152410476Y-93863866D02*
X152362857Y-93816247D01*
X152362857Y-93816247D02*
X152267619Y-93768628D01*
X152267619Y-93768628D02*
X152077143Y-93721009D01*
X152077143Y-93721009D02*
X151981905Y-93673390D01*
X151981905Y-93673390D02*
X151934286Y-93625771D01*
X151934286Y-93625771D02*
X151886667Y-93530533D01*
X151886667Y-93530533D02*
X151886667Y-93435295D01*
X151886667Y-93435295D02*
X151934286Y-93340057D01*
X151934286Y-93340057D02*
X151981905Y-93292438D01*
X151981905Y-93292438D02*
X152077143Y-93244819D01*
X152077143Y-93244819D02*
X152315238Y-93244819D01*
X152315238Y-93244819D02*
X152458095Y-93292438D01*
X152791429Y-93244819D02*
X153029524Y-94244819D01*
X153029524Y-94244819D02*
X153220000Y-93530533D01*
X153220000Y-93530533D02*
X153410476Y-94244819D01*
X153410476Y-94244819D02*
X153648572Y-93244819D01*
X154553333Y-94244819D02*
X153981905Y-94244819D01*
X154267619Y-94244819D02*
X154267619Y-93244819D01*
X154267619Y-93244819D02*
X154172381Y-93387676D01*
X154172381Y-93387676D02*
X154077143Y-93482914D01*
X154077143Y-93482914D02*
X153981905Y-93530533D01*
X142393333Y-101974819D02*
X142060000Y-101498628D01*
X141821905Y-101974819D02*
X141821905Y-100974819D01*
X141821905Y-100974819D02*
X142202857Y-100974819D01*
X142202857Y-100974819D02*
X142298095Y-101022438D01*
X142298095Y-101022438D02*
X142345714Y-101070057D01*
X142345714Y-101070057D02*
X142393333Y-101165295D01*
X142393333Y-101165295D02*
X142393333Y-101308152D01*
X142393333Y-101308152D02*
X142345714Y-101403390D01*
X142345714Y-101403390D02*
X142298095Y-101451009D01*
X142298095Y-101451009D02*
X142202857Y-101498628D01*
X142202857Y-101498628D02*
X141821905Y-101498628D01*
X142726667Y-100974819D02*
X143345714Y-100974819D01*
X143345714Y-100974819D02*
X143012381Y-101355771D01*
X143012381Y-101355771D02*
X143155238Y-101355771D01*
X143155238Y-101355771D02*
X143250476Y-101403390D01*
X143250476Y-101403390D02*
X143298095Y-101451009D01*
X143298095Y-101451009D02*
X143345714Y-101546247D01*
X143345714Y-101546247D02*
X143345714Y-101784342D01*
X143345714Y-101784342D02*
X143298095Y-101879580D01*
X143298095Y-101879580D02*
X143250476Y-101927200D01*
X143250476Y-101927200D02*
X143155238Y-101974819D01*
X143155238Y-101974819D02*
X142869524Y-101974819D01*
X142869524Y-101974819D02*
X142774286Y-101927200D01*
X142774286Y-101927200D02*
X142726667Y-101879580D01*
X142393333Y-97924819D02*
X142060000Y-97448628D01*
X141821905Y-97924819D02*
X141821905Y-96924819D01*
X141821905Y-96924819D02*
X142202857Y-96924819D01*
X142202857Y-96924819D02*
X142298095Y-96972438D01*
X142298095Y-96972438D02*
X142345714Y-97020057D01*
X142345714Y-97020057D02*
X142393333Y-97115295D01*
X142393333Y-97115295D02*
X142393333Y-97258152D01*
X142393333Y-97258152D02*
X142345714Y-97353390D01*
X142345714Y-97353390D02*
X142298095Y-97401009D01*
X142298095Y-97401009D02*
X142202857Y-97448628D01*
X142202857Y-97448628D02*
X141821905Y-97448628D01*
X142774286Y-97020057D02*
X142821905Y-96972438D01*
X142821905Y-96972438D02*
X142917143Y-96924819D01*
X142917143Y-96924819D02*
X143155238Y-96924819D01*
X143155238Y-96924819D02*
X143250476Y-96972438D01*
X143250476Y-96972438D02*
X143298095Y-97020057D01*
X143298095Y-97020057D02*
X143345714Y-97115295D01*
X143345714Y-97115295D02*
X143345714Y-97210533D01*
X143345714Y-97210533D02*
X143298095Y-97353390D01*
X143298095Y-97353390D02*
X142726667Y-97924819D01*
X142726667Y-97924819D02*
X143345714Y-97924819D01*
X161491905Y-93994819D02*
X161491905Y-92994819D01*
X161491905Y-92994819D02*
X161730000Y-92994819D01*
X161730000Y-92994819D02*
X161872857Y-93042438D01*
X161872857Y-93042438D02*
X161968095Y-93137676D01*
X161968095Y-93137676D02*
X162015714Y-93232914D01*
X162015714Y-93232914D02*
X162063333Y-93423390D01*
X162063333Y-93423390D02*
X162063333Y-93566247D01*
X162063333Y-93566247D02*
X162015714Y-93756723D01*
X162015714Y-93756723D02*
X161968095Y-93851961D01*
X161968095Y-93851961D02*
X161872857Y-93947200D01*
X161872857Y-93947200D02*
X161730000Y-93994819D01*
X161730000Y-93994819D02*
X161491905Y-93994819D01*
X163015714Y-93994819D02*
X162444286Y-93994819D01*
X162730000Y-93994819D02*
X162730000Y-92994819D01*
X162730000Y-92994819D02*
X162634762Y-93137676D01*
X162634762Y-93137676D02*
X162539524Y-93232914D01*
X162539524Y-93232914D02*
X162444286Y-93280533D01*
X161491905Y-108934819D02*
X161491905Y-107934819D01*
X161491905Y-107934819D02*
X161730000Y-107934819D01*
X161730000Y-107934819D02*
X161872857Y-107982438D01*
X161872857Y-107982438D02*
X161968095Y-108077676D01*
X161968095Y-108077676D02*
X162015714Y-108172914D01*
X162015714Y-108172914D02*
X162063333Y-108363390D01*
X162063333Y-108363390D02*
X162063333Y-108506247D01*
X162063333Y-108506247D02*
X162015714Y-108696723D01*
X162015714Y-108696723D02*
X161968095Y-108791961D01*
X161968095Y-108791961D02*
X161872857Y-108887200D01*
X161872857Y-108887200D02*
X161730000Y-108934819D01*
X161730000Y-108934819D02*
X161491905Y-108934819D01*
X162396667Y-107934819D02*
X163015714Y-107934819D01*
X163015714Y-107934819D02*
X162682381Y-108315771D01*
X162682381Y-108315771D02*
X162825238Y-108315771D01*
X162825238Y-108315771D02*
X162920476Y-108363390D01*
X162920476Y-108363390D02*
X162968095Y-108411009D01*
X162968095Y-108411009D02*
X163015714Y-108506247D01*
X163015714Y-108506247D02*
X163015714Y-108744342D01*
X163015714Y-108744342D02*
X162968095Y-108839580D01*
X162968095Y-108839580D02*
X162920476Y-108887200D01*
X162920476Y-108887200D02*
X162825238Y-108934819D01*
X162825238Y-108934819D02*
X162539524Y-108934819D01*
X162539524Y-108934819D02*
X162444286Y-108887200D01*
X162444286Y-108887200D02*
X162396667Y-108839580D01*
X151886667Y-102747200D02*
X152029524Y-102794819D01*
X152029524Y-102794819D02*
X152267619Y-102794819D01*
X152267619Y-102794819D02*
X152362857Y-102747200D01*
X152362857Y-102747200D02*
X152410476Y-102699580D01*
X152410476Y-102699580D02*
X152458095Y-102604342D01*
X152458095Y-102604342D02*
X152458095Y-102509104D01*
X152458095Y-102509104D02*
X152410476Y-102413866D01*
X152410476Y-102413866D02*
X152362857Y-102366247D01*
X152362857Y-102366247D02*
X152267619Y-102318628D01*
X152267619Y-102318628D02*
X152077143Y-102271009D01*
X152077143Y-102271009D02*
X151981905Y-102223390D01*
X151981905Y-102223390D02*
X151934286Y-102175771D01*
X151934286Y-102175771D02*
X151886667Y-102080533D01*
X151886667Y-102080533D02*
X151886667Y-101985295D01*
X151886667Y-101985295D02*
X151934286Y-101890057D01*
X151934286Y-101890057D02*
X151981905Y-101842438D01*
X151981905Y-101842438D02*
X152077143Y-101794819D01*
X152077143Y-101794819D02*
X152315238Y-101794819D01*
X152315238Y-101794819D02*
X152458095Y-101842438D01*
X152791429Y-101794819D02*
X153029524Y-102794819D01*
X153029524Y-102794819D02*
X153220000Y-102080533D01*
X153220000Y-102080533D02*
X153410476Y-102794819D01*
X153410476Y-102794819D02*
X153648572Y-101794819D01*
X153981905Y-101890057D02*
X154029524Y-101842438D01*
X154029524Y-101842438D02*
X154124762Y-101794819D01*
X154124762Y-101794819D02*
X154362857Y-101794819D01*
X154362857Y-101794819D02*
X154458095Y-101842438D01*
X154458095Y-101842438D02*
X154505714Y-101890057D01*
X154505714Y-101890057D02*
X154553333Y-101985295D01*
X154553333Y-101985295D02*
X154553333Y-102080533D01*
X154553333Y-102080533D02*
X154505714Y-102223390D01*
X154505714Y-102223390D02*
X153934286Y-102794819D01*
X153934286Y-102794819D02*
X154553333Y-102794819D01*
X142393333Y-93874819D02*
X142060000Y-93398628D01*
X141821905Y-93874819D02*
X141821905Y-92874819D01*
X141821905Y-92874819D02*
X142202857Y-92874819D01*
X142202857Y-92874819D02*
X142298095Y-92922438D01*
X142298095Y-92922438D02*
X142345714Y-92970057D01*
X142345714Y-92970057D02*
X142393333Y-93065295D01*
X142393333Y-93065295D02*
X142393333Y-93208152D01*
X142393333Y-93208152D02*
X142345714Y-93303390D01*
X142345714Y-93303390D02*
X142298095Y-93351009D01*
X142298095Y-93351009D02*
X142202857Y-93398628D01*
X142202857Y-93398628D02*
X141821905Y-93398628D01*
X143345714Y-93874819D02*
X142774286Y-93874819D01*
X143060000Y-93874819D02*
X143060000Y-92874819D01*
X143060000Y-92874819D02*
X142964762Y-93017676D01*
X142964762Y-93017676D02*
X142869524Y-93112914D01*
X142869524Y-93112914D02*
X142774286Y-93160533D01*
X161491905Y-101464819D02*
X161491905Y-100464819D01*
X161491905Y-100464819D02*
X161730000Y-100464819D01*
X161730000Y-100464819D02*
X161872857Y-100512438D01*
X161872857Y-100512438D02*
X161968095Y-100607676D01*
X161968095Y-100607676D02*
X162015714Y-100702914D01*
X162015714Y-100702914D02*
X162063333Y-100893390D01*
X162063333Y-100893390D02*
X162063333Y-101036247D01*
X162063333Y-101036247D02*
X162015714Y-101226723D01*
X162015714Y-101226723D02*
X161968095Y-101321961D01*
X161968095Y-101321961D02*
X161872857Y-101417200D01*
X161872857Y-101417200D02*
X161730000Y-101464819D01*
X161730000Y-101464819D02*
X161491905Y-101464819D01*
X162444286Y-100560057D02*
X162491905Y-100512438D01*
X162491905Y-100512438D02*
X162587143Y-100464819D01*
X162587143Y-100464819D02*
X162825238Y-100464819D01*
X162825238Y-100464819D02*
X162920476Y-100512438D01*
X162920476Y-100512438D02*
X162968095Y-100560057D01*
X162968095Y-100560057D02*
X163015714Y-100655295D01*
X163015714Y-100655295D02*
X163015714Y-100750533D01*
X163015714Y-100750533D02*
X162968095Y-100893390D01*
X162968095Y-100893390D02*
X162396667Y-101464819D01*
X162396667Y-101464819D02*
X163015714Y-101464819D01*
X148784285Y-71179084D02*
X148927142Y-71226703D01*
X148927142Y-71226703D02*
X148974761Y-71274322D01*
X148974761Y-71274322D02*
X149022380Y-71369560D01*
X149022380Y-71369560D02*
X149022380Y-71512417D01*
X149022380Y-71512417D02*
X148974761Y-71607655D01*
X148974761Y-71607655D02*
X148927142Y-71655275D01*
X148927142Y-71655275D02*
X148831904Y-71702894D01*
X148831904Y-71702894D02*
X148450952Y-71702894D01*
X148450952Y-71702894D02*
X148450952Y-70702894D01*
X148450952Y-70702894D02*
X148784285Y-70702894D01*
X148784285Y-70702894D02*
X148879523Y-70750513D01*
X148879523Y-70750513D02*
X148927142Y-70798132D01*
X148927142Y-70798132D02*
X148974761Y-70893370D01*
X148974761Y-70893370D02*
X148974761Y-70988608D01*
X148974761Y-70988608D02*
X148927142Y-71083846D01*
X148927142Y-71083846D02*
X148879523Y-71131465D01*
X148879523Y-71131465D02*
X148784285Y-71179084D01*
X148784285Y-71179084D02*
X148450952Y-71179084D01*
X149308095Y-70702894D02*
X149879523Y-70702894D01*
X149593809Y-71702894D02*
X149593809Y-70702894D01*
X150736666Y-71702894D02*
X150165238Y-71702894D01*
X150450952Y-71702894D02*
X150450952Y-70702894D01*
X150450952Y-70702894D02*
X150355714Y-70845751D01*
X150355714Y-70845751D02*
X150260476Y-70940989D01*
X150260476Y-70940989D02*
X150165238Y-70988608D01*
D12*
%TO.C,SW3*%
X149720000Y-114390000D02*
X149720000Y-115890000D01*
X150970000Y-118390000D02*
X155470000Y-118390000D01*
X155470000Y-111890000D02*
X150970000Y-111890000D01*
X156720000Y-115890000D02*
X156720000Y-114390000D01*
%TO.C,SW1*%
X149720000Y-97290000D02*
X149720000Y-98790000D01*
X150970000Y-101290000D02*
X155470000Y-101290000D01*
X155470000Y-94790000D02*
X150970000Y-94790000D01*
X156720000Y-98790000D02*
X156720000Y-97290000D01*
%TO.C,R3*%
X139290000Y-102520000D02*
X145830000Y-102520000D01*
X139290000Y-102850000D02*
X139290000Y-102520000D01*
X139290000Y-104930000D02*
X139290000Y-105260000D01*
X139290000Y-105260000D02*
X145830000Y-105260000D01*
X145830000Y-102520000D02*
X145830000Y-102850000D01*
X145830000Y-105260000D02*
X145830000Y-104930000D01*
%TO.C,R2*%
X139290000Y-98470000D02*
X145830000Y-98470000D01*
X139290000Y-98800000D02*
X139290000Y-98470000D01*
X139290000Y-100880000D02*
X139290000Y-101210000D01*
X139290000Y-101210000D02*
X145830000Y-101210000D01*
X145830000Y-98470000D02*
X145830000Y-98800000D01*
X145830000Y-101210000D02*
X145830000Y-100880000D01*
%TO.C,D1*%
X159670000Y-95955000D02*
X159670000Y-99045000D01*
X159670000Y-95955170D02*
G75*
G02*
X165220000Y-97500000I2560000J-1544830D01*
G01*
X165220000Y-97500000D02*
G75*
G02*
X159670000Y-99044830I-2990000J0D01*
G01*
X164730000Y-97500000D02*
G75*
G02*
X159730000Y-97500000I-2500000J0D01*
G01*
X159730000Y-97500000D02*
G75*
G02*
X164730000Y-97500000I2500000J0D01*
G01*
%TO.C,D3*%
X159670000Y-110895000D02*
X159670000Y-113985000D01*
X159670000Y-110895170D02*
G75*
G02*
X165220000Y-112440000I2560000J-1544830D01*
G01*
X165220000Y-112440000D02*
G75*
G02*
X159670000Y-113984830I-2990000J0D01*
G01*
X164730000Y-112440000D02*
G75*
G02*
X159730000Y-112440000I-2500000J0D01*
G01*
X159730000Y-112440000D02*
G75*
G02*
X164730000Y-112440000I2500000J0D01*
G01*
%TO.C,SW2*%
X149720000Y-105840000D02*
X149720000Y-107340000D01*
X150970000Y-109840000D02*
X155470000Y-109840000D01*
X155470000Y-103340000D02*
X150970000Y-103340000D01*
X156720000Y-107340000D02*
X156720000Y-105840000D01*
%TO.C,R1*%
X139290000Y-94420000D02*
X145830000Y-94420000D01*
X139290000Y-94750000D02*
X139290000Y-94420000D01*
X139290000Y-96830000D02*
X139290000Y-97160000D01*
X139290000Y-97160000D02*
X145830000Y-97160000D01*
X145830000Y-94420000D02*
X145830000Y-94750000D01*
X145830000Y-97160000D02*
X145830000Y-96830000D01*
%TO.C,D2*%
X159670000Y-103425000D02*
X159670000Y-106515000D01*
X159670000Y-103425170D02*
G75*
G02*
X165220000Y-104970000I2560000J-1544830D01*
G01*
X165220000Y-104970000D02*
G75*
G02*
X159670000Y-106514830I-2990000J0D01*
G01*
X164730000Y-104970000D02*
G75*
G02*
X159730000Y-104970000I-2500000J0D01*
G01*
X159730000Y-104970000D02*
G75*
G02*
X164730000Y-104970000I2500000J0D01*
G01*
%TO.C,BT1*%
X138790000Y-77288075D02*
X138790000Y-79748075D01*
X138790000Y-85748075D02*
X138790000Y-86378075D01*
X138790000Y-86378075D02*
X140230000Y-90328075D01*
X140870000Y-75208075D02*
X138790000Y-77288075D01*
X144370000Y-75208075D02*
X140870000Y-75208075D01*
X158270000Y-75208075D02*
X154770000Y-75208075D01*
X158270000Y-75208075D02*
X160350000Y-77288075D01*
X160350000Y-77288075D02*
X160350000Y-79748075D01*
X160350000Y-85748075D02*
X160350000Y-86378075D01*
X160350000Y-86378075D02*
X158910000Y-90328075D01*
X143566646Y-91314605D02*
G75*
G02*
X140230000Y-90328075I-1306646J1716531D01*
G01*
X158895243Y-90336244D02*
G75*
G02*
X155570000Y-91298075I-2015243J738169D01*
G01*
%TD*%
M02*
